<svg width="300" height="300" viewBox="0 0 300 300" fill="none" xmlns="http://www.w3.org/2000/svg">
<path fill-rule="evenodd" clip-rule="evenodd" d="M130.02 38.0193C123.676 40.2703 116 47.1423 116 50.5713C116 52.2693 112.614 55.3383 101.75 63.4883C84.359 76.5363 85.325 75.6543 86.8 77.1293C88.894 79.2233 88.132 80.6623 82.891 84.5093L77.782 88.2593L80.641 89.7113C87.676 93.2833 94.386 102.234 95.567 109.623L96.238 113.817L101.576 109.873C107.656 105.382 107.84 105.329 109.5 107.598C110.692 109.229 116.684 105.386 134 91.8853C136.401 90.0133 136.705 90.0023 141.662 91.5953L146.824 93.2553L149.989 90.5923C151.729 89.1273 153.754 87.9293 154.488 87.9293C155.222 87.9293 157.045 86.4663 158.54 84.6793C160.035 82.8923 162.197 81.1873 163.345 80.8923C164.724 80.5373 165.7 79.1783 166.218 76.8923C167.132 72.8633 166.184 59.9293 164.975 59.9293C162.846 59.9293 158.129 66.2033 157.512 69.8583C156.41 76.3833 153.979 77.0533 142.817 73.9093C139.303 72.9193 139.161 72.7133 139.702 69.3783C140.406 65.0423 137.958 61.9293 133.845 61.9293C131.078 61.9293 131 61.7853 131.014 56.6793C131.037 47.5993 134.197 43.5873 139.899 45.3973C142.022 46.0713 151 42.7023 151 41.2323C151 40.3413 138.912 35.8853 136.813 36.0023C136.091 36.0423 133.034 36.9503 130.02 38.0193ZM253.05 42.2983C252.512 43.7133 250.002 50.6213 247.472 57.6493C244.942 64.6783 241.06 75.3793 238.845 81.4293C201.076 184.612 189.093 217.414 185.507 227.429C183.144 234.029 180.038 242.52 178.605 246.298C177.172 250.076 176 253.505 176 253.918C176 254.332 179.488 255.904 183.75 257.412C188.012 258.92 194.266 261.19 197.646 262.457L203.792 264.761L205.303 260.595C206.134 258.304 208.62 251.479 210.828 245.429C213.036 239.379 216.643 229.479 218.844 223.429C221.045 217.379 224.732 207.254 227.037 200.929C229.341 194.604 234.503 180.429 238.506 169.429C255.11 123.806 273.099 74.6453 277.403 63.1323C279.931 56.3693 282 50.6763 282 50.4823C282 50.2893 276.488 48.0943 269.75 45.6073C263.012 43.1193 256.719 40.7783 255.764 40.4043C254.489 39.9063 253.768 40.4093 253.05 42.2983ZM61.25 94.5913C60.563 94.8693 60 96.3823 60 97.9533C60 101.462 58.915 102.227 55.683 100.998C52.335 99.7263 48.983 102.84 51.475 104.908C53.861 106.888 53.276 108.998 50 110.235C46.193 111.672 45.928 115.119 49.5 116.747C52.511 118.119 52.685 119.999 50.025 122.407C47.3 124.873 48.827 127.301 53.148 127.373C56.273 127.425 56.521 127.677 56.805 131.093C57.155 135.289 59.422 136.762 61.973 134.453C64.427 132.233 66.521 132.583 67.818 135.429C69.44 138.989 72.595 138.704 73.35 134.929C73.976 131.8 76.552 130.881 78.694 133.023C81.079 135.408 83.5 133.59 83.5 129.414C83.5 125.671 83.693 125.41 86.665 125.122C90.65 124.735 91.957 121.978 89.065 120.057C86.448 118.318 86.42 115.772 89 114.161C92.126 112.209 91.569 108.993 87.979 108.275C84.242 107.527 83.591 106.561 85.023 103.886C86.708 100.737 84.601 98.7263 80.437 99.5073C77.396 100.077 77.127 99.9123 76.826 97.2763C76.408 93.6213 71.602 92.5183 70.724 95.8753C70.04 98.4933 67.387 98.5223 65.768 95.9293C64.517 93.9253 63.584 93.6493 61.25 94.5913ZM74.316 103.054C87.672 109.933 83.796 128.929 69.036 128.929C57.66 128.929 51.258 116.228 58.191 107.413C61.949 102.636 69.527 100.588 74.316 103.054ZM88.505 133.669C82.231 141.201 69.585 144.52 59.797 141.203C56.66 140.14 54.384 139.756 54.739 140.35C55.094 140.943 64.073 154.577 74.692 170.647C85.311 186.717 94 200.33 94 200.897C94 201.588 81.446 201.929 56 201.929H18V216.46C18 228.685 18.247 231.087 19.556 231.589C20.411 231.917 56.045 231.79 98.741 231.307L176.371 230.429L178.105 225.429C179.059 222.679 181.431 216.042 183.377 210.679L186.914 200.929H163.089H139.263L115.882 165.492C103.022 146.001 92.275 130.059 92 130.064C91.725 130.069 90.152 131.691 88.505 133.669Z" fill="white"/>
</svg>
